<svg width="60" height="71" viewBox="0 0 60 71" fill="none" xmlns="http://www.w3.org/2000/svg">
    <path d="M25.5324 71C17.6659 71 11.4852 68.6445 6.99009 63.9336C2.60737 59.1106 0.416016 52.4368 0.416016 43.9123C0.416016 35.5 2.21405 27.985 5.81013 21.3673C9.4062 14.7496 14.3508 9.53396 20.6439 5.72037C26.9371 1.90679 34.073 0 42.0518 0C47.4459 0 51.7163 0.897318 54.8628 2.69195C58.0094 4.48658 59.5827 6.95419 59.5827 10.0948C59.5827 12.8989 58.2342 15.6469 55.5371 18.3389C54.5257 19.3483 53.1772 20.3017 51.4915 21.199C49.9182 21.9842 48.6821 22.3768 47.7831 22.3768C46.7717 22.3768 45.9288 21.9842 45.2546 21.199C44.1308 19.9652 42.6699 18.7875 40.8719 17.6659C39.0738 16.5442 36.5453 15.9834 33.2864 15.9834C27.7799 15.9834 23.2848 17.8902 19.8011 21.7038C16.3174 25.4052 14.5756 30.2844 14.5756 36.3412C14.5756 41.8373 16.1488 46.2678 19.2954 49.6327C22.442 52.9976 26.5999 54.6801 31.7693 54.6801C34.4664 54.6801 37.3882 54.2314 40.5347 53.3341C43.7937 52.3246 46.6593 50.9226 49.1316 49.128C50.3677 48.0063 51.6601 47.4455 53.0086 47.4455C55.2562 47.4455 56.3799 48.8476 56.3799 51.6517C56.3799 55.3531 54.5257 58.8862 50.8172 62.2512C48.0078 64.831 44.2432 66.9621 39.5233 68.6445C34.9159 70.2148 30.2522 71 25.5324 71Z" fill="#001815"/>
    <path d="M25.6604 69.3095C18.0188 69.3095 12.0146 67.0101 7.64796 62.4114C3.39047 57.7032 1.26172 51.1883 1.26172 42.8668C1.26172 34.6548 3.00838 27.3187 6.50171 20.8586C9.99504 14.3984 14.7984 9.30696 20.9117 5.58418C27.025 1.86139 33.9571 0 41.7079 0C46.9479 0 51.0962 0.875953 54.1529 2.62785C57.2096 4.37975 58.7379 6.78861 58.7379 9.85443C58.7379 12.5918 57.4279 15.2744 54.8079 17.9022C53.8254 18.8877 52.5154 19.8184 50.8779 20.6943C49.3496 21.4608 48.1488 21.844 47.2754 21.844C46.2929 21.844 45.4742 21.4608 44.8192 20.6943C43.7275 19.4899 42.3083 18.3402 40.5617 17.2453C38.815 16.1503 36.3588 15.6029 33.1929 15.6029C27.8438 15.6029 23.4771 17.4642 20.0929 21.187C16.7088 24.8003 15.0167 29.5633 15.0167 35.476C15.0167 40.8412 16.545 45.1662 19.6017 48.451C22.6584 51.7358 26.6975 53.3782 31.7192 53.3782C34.3392 53.3782 37.1775 52.9402 40.2342 52.0643C43.4 51.0788 46.1838 49.7102 48.5854 47.9583C49.7863 46.8633 51.0417 46.3158 52.3517 46.3158C54.535 46.3158 55.6267 47.6845 55.6267 50.4219C55.6267 54.0352 53.8254 57.4842 50.2229 60.769C47.4938 63.2874 43.8367 65.3678 39.2517 67.0102C34.7758 68.5431 30.2454 69.3095 25.6604 69.3095Z" fill="#24786D"/>
</svg>