<?xml version="1.0" ?><!DOCTYPE svg  PUBLIC '-//W3C//DTD SVG 1.1//EN'  'http://www.w3.org/Graphics/SVG/1.1/DTD/svg11.dtd'><svg height="512px" style="enable-background:new 0 0 512 512;" version="1.1" viewBox="0 0 512 512" width="512px" xml:space="preserve" xmlns="http://www.w3.org/2000/svg" xmlns:xlink="http://www.w3.org/1999/xlink"><g id="_x32_7_x2C__PDF_x2C__File_type_x2C__Adobe"><g><g><path d="M137.834,124.173c3.291-0.561,7.911-0.98,14.421-0.98c6.581,0,11.271,1.26,14.421,3.78     c3.01,2.381,5.041,6.301,5.041,10.921c0,4.621-1.54,8.542-4.34,11.201c-3.641,3.431-9.031,4.971-15.331,4.971     c-1.401,0-2.661-0.069-3.641-0.21v16.872h-10.571V124.173z M148.405,145.595c0.91,0.21,2.03,0.28,3.57,0.28     c5.67,0,9.171-2.87,9.171-7.701c0-4.339-3.011-6.93-8.331-6.93c-2.17,0-3.641,0.209-4.41,0.419V145.595z"/><path d="M178.509,124.173c3.92-0.63,9.031-0.98,14.421-0.98c8.961,0,14.771,1.61,19.322,5.041c4.9,3.64,7.98,9.451,7.98,17.781     c0,9.031-3.291,15.262-7.841,19.112c-4.971,4.13-12.531,6.091-21.772,6.091c-5.531,0-9.451-0.35-12.111-0.701V124.173z      M189.22,162.677c0.91,0.21,2.38,0.21,3.71,0.21c9.661,0.071,15.962-5.25,15.962-16.521c0.07-9.801-5.671-14.981-14.842-14.981     c-2.38,0-3.92,0.21-4.831,0.42V162.677z"/><path d="M227.234,123.543h28.843v8.75h-18.132v10.781h16.942v8.681h-16.942v18.971h-10.711V123.543z"/></g><path d="M370.36,352.626c-0.129-1.278-1.278-16.115-27.634-15.475c-26.35,0.637-32.743,2.3-32.743,2.3    s-19.701-19.953-26.863-35.433c0,0,8.696-25.456,8.312-41.448c-0.381-15.987-4.218-25.201-16.5-25.073    c-12.281,0.128-14.072,10.876-12.457,26.872c1.448,14.352,8.876,31.205,8.876,31.205s-5.676,17.655-13.179,35.222    c-7.505,17.569-12.62,26.778-12.62,26.778s-25.372,8.488-36.372,18.719c-11.004,10.235-15.474,18.099-9.68,25.971    c4.987,6.777,22.47,8.312,38.078-12.155c15.606-20.466,22.644-33.26,22.644-33.26s23.813-6.522,31.223-8.313    c7.41-1.79,16.359-3.201,16.359-3.201s21.752,21.877,42.727,21.107C371.514,365.677,370.488,353.907,370.36,352.626z     M204.958,398.806c-13.047-7.804,27.376-31.851,34.667-32.62C239.625,366.186,218.616,406.977,204.958,398.806z M267,258.477    c0-12.663,4.095-16.116,7.291-16.116c3.197,0,6.777,1.535,6.905,12.535c0.13,11.004-6.905,32.492-6.905,32.492    C271.863,284.831,267,271.144,267,258.477z M283.846,345.207c-13.093,3.201-19.658,6.526-19.658,6.526s0,0,5.368-12.026    c5.376-12.021,10.876-28.397,10.876-28.397c7.419,13.816,22.133,30.06,22.133,30.06S296.933,342.01,283.846,345.207z     M315.309,344.101c0,0,42.555-7.713,42.555,6.82C357.863,365.459,331.514,359.537,315.309,344.101z"/><polygon points="    125,53 125,94 308,94 308,200 125,200 125,459 427,459 427,112.216 367.528,53   " style="fill:none;stroke:#000000;stroke-width:20;stroke-linecap:round;stroke-linejoin:round;stroke-miterlimit:10;"/><polygon points="    124.791,94 85,94 85,200 124.791,200 308,200 308,94   " style="fill:none;stroke:#000000;stroke-width:20;stroke-linecap:round;stroke-linejoin:round;stroke-miterlimit:10;"/><polyline points="    367.528,52.625 368.075,112.259 426.572,112.216   " style="fill:none;stroke:#000000;stroke-width:20;stroke-linecap:round;stroke-linejoin:round;stroke-miterlimit:10;"/></g></g><g id="Layer_1"/></svg>
