<svg width="26" height="26" viewBox="0 0 26 26" fill="none" xmlns="http://www.w3.org/2000/svg">
    <path d="M13.9191 4.33334H12.0807C11.0654 4.33334 10.2423 5.10938 10.2423 6.06668C10.2423 7.16216 9.07022 7.85863 8.10806 7.33487L8.01033 7.28167C7.13104 6.80302 6.0067 7.08707 5.49905 7.91612L4.57985 9.41723C4.07219 10.2463 4.37346 11.3064 5.25275 11.785C6.21537 12.309 6.21536 13.691 5.25275 14.215C4.37346 14.6937 4.07219 15.7538 4.57985 16.5828L5.49904 18.0839C6.0067 18.9129 7.13104 19.197 8.01033 18.7183L8.10806 18.6652C9.07022 18.1414 10.2423 18.8379 10.2423 19.9333C10.2423 20.8906 11.0654 21.6667 12.0807 21.6667H13.9191C14.9344 21.6667 15.7575 20.8906 15.7575 19.9333C15.7575 18.8379 16.9296 18.1414 17.8918 18.6651L17.9895 18.7183C18.8688 19.197 19.9931 18.9129 20.5008 18.0839L21.42 16.5828C21.9276 15.7537 21.6264 14.6937 20.7471 14.215C19.7845 13.691 19.7845 12.309 20.7471 11.785C21.6264 11.3064 21.9276 10.2463 21.42 9.41724L20.5008 7.91613C19.9931 7.08709 18.8688 6.80304 17.9895 7.28168L17.8918 7.33488C16.9296 7.85864 15.7575 7.16216 15.7575 6.06668C15.7575 5.10938 14.9344 4.33334 13.9191 4.33334Z" stroke="#797C7B" stroke-width="1.5" stroke-linejoin="round"/>
    <circle cx="13" cy="13" r="3.25" stroke="#797C7B" stroke-width="1.5"/>
</svg>